<svg width="20" height="20" viewBox="0 0 20 20" fill="none" xmlns="http://www.w3.org/2000/svg">
<path d="M2.54167 17.7537C2.79167 17.8787 4 17.0037 5.25 15.7954L7.5 13.5871V15.3371C7.5 16.6287 7.66667 17.0871 8.125 17.0871C8.625 17.0871 8.75 16.5037 8.75 14.1704V11.2537H5.83333C3.5 11.2537 2.91667 11.3787 2.91667 11.8787C2.91667 12.3371 3.375 12.5037 4.66667 12.5037H6.41667L4.25 14.7121C1.95833 17.0454 1.83333 17.2954 2.54167 17.7537Z" fill="#6B7075"/>
<path d="M4.25 5.33333L6.45833 7.5H4.66667C3.375 7.5 2.91667 7.66667 2.91667 8.125C2.91667 8.625 3.5 8.75 5.83333 8.75H8.75V5.83333C8.75 3.5 8.625 2.91667 8.125 2.91667C7.66667 2.91667 7.5 3.375 7.5 4.66667V6.41667L5.25 4.20833C4 3 2.79167 2.125 2.54167 2.25C1.79167 2.70833 1.95833 3.04167 4.25 5.33333Z" fill="#6B7075"/>
<path d="M11.8715 17.0876C12.3298 17.0876 12.4965 16.6293 12.4965 15.3376V13.5876L14.7881 15.8376C16.5798 17.6293 17.1631 18.0043 17.5798 17.5876C17.9965 17.171 17.6215 16.5876 15.8298 14.796L13.5798 12.5043H15.3298C16.6215 12.5043 17.0798 12.3376 17.0798 11.8793C17.0798 11.3793 16.4965 11.2543 14.1631 11.2543H11.2465V14.171C11.2465 16.5043 11.3715 17.0876 11.8715 17.0876Z" fill="#6B7075"/>
<path d="M14.1631 8.75C16.4965 8.75 17.0798 8.625 17.0798 8.125C17.0798 7.66667 16.6215 7.5 15.3298 7.5H13.5798L15.8298 5.20833C17.6215 3.41667 17.9965 2.83333 17.5798 2.41667C17.1631 2 16.5798 2.375 14.7881 4.16667L12.4965 6.41667V4.66667C12.4965 3.375 12.3298 2.91667 11.8715 2.91667C11.3715 2.91667 11.2465 3.5 11.2465 5.83333V8.75H14.1631Z" fill="#6B7075"/>
</svg>
